<mxfile host="app.diagrams.net" modified="2023-05-29T20:22:16.006Z" agent="Mozilla/5.0 (Windows NT 10.0; Win64; x64) AppleWebKit/537.36 (KHTML, like Gecko) Chrome/113.0.0.0 Safari/537.36" etag="XYlkypS8yCOHPqCMfsYb" version="21.3.5" type="device" pages="2">
  <diagram id="C5RBs43oDa-KdzZeNtuy" name="Page-1">
    <mxGraphModel dx="794" dy="430" grid="0" gridSize="10" guides="1" tooltips="1" connect="1" arrows="1" fold="1" page="1" pageScale="1" pageWidth="827" pageHeight="1169" math="0" shadow="0">
      <root>
        <mxCell id="WIyWlLk6GJQsqaUBKTNV-0" />
        <mxCell id="WIyWlLk6GJQsqaUBKTNV-1" parent="WIyWlLk6GJQsqaUBKTNV-0" />
        <mxCell id="zkfFHV4jXpPFQw0GAbJ--0" value="USERDATA" style="swimlane;fontStyle=2;align=center;verticalAlign=top;childLayout=stackLayout;horizontal=1;startSize=26;horizontalStack=0;resizeParent=1;resizeLast=0;collapsible=1;marginBottom=0;rounded=0;shadow=0;strokeWidth=1;" parent="WIyWlLk6GJQsqaUBKTNV-1" vertex="1">
          <mxGeometry x="72" y="36" width="180" height="100" as="geometry">
            <mxRectangle x="80" y="40" width="160" height="26" as="alternateBounds" />
          </mxGeometry>
        </mxCell>
        <mxCell id="fAS_cCgl-SuV0zaBuzUX-10" value="userId&lt;br&gt;&lt;div style=&quot;font-weight: bold;&quot;&gt;&lt;span style=&quot;background-color: initial; font-weight: normal;&quot;&gt;email&lt;/span&gt;&lt;/div&gt;firstName&lt;br&gt;lastName&lt;br&gt;password" style="text;strokeColor=none;align=left;fillColor=none;html=1;verticalAlign=middle;whiteSpace=wrap;rounded=0;" parent="zkfFHV4jXpPFQw0GAbJ--0" vertex="1">
          <mxGeometry y="26" width="180" height="74" as="geometry" />
        </mxCell>
        <mxCell id="zkfFHV4jXpPFQw0GAbJ--13" value="TARGETS" style="swimlane;fontStyle=2;align=center;verticalAlign=top;childLayout=stackLayout;horizontal=1;startSize=26;horizontalStack=0;resizeParent=1;resizeLast=0;collapsible=1;marginBottom=0;rounded=0;shadow=0;strokeWidth=1;" parent="WIyWlLk6GJQsqaUBKTNV-1" vertex="1">
          <mxGeometry x="72" y="190" width="180" height="160" as="geometry">
            <mxRectangle x="340" y="380" width="170" height="26" as="alternateBounds" />
          </mxGeometry>
        </mxCell>
        <mxCell id="1Y8H2mdCFGrl70yU5CJG-13" value="&lt;span style=&quot;font-size: 12px;&quot;&gt;&lt;font color=&quot;#000000&quot;&gt;targetEbitdaLTM&lt;br&gt;targetName&lt;br&gt;targetRevenueLTM&lt;br&gt;targetSector&lt;br&gt;targetSubsector&lt;br&gt;targetSymbol&lt;br&gt;timeDateCreated&lt;br&gt;type&lt;br&gt;userId&lt;/font&gt;&lt;br style=&quot;font-size: 12px;&quot;&gt;&lt;/span&gt;" style="text;strokeColor=none;align=left;fillColor=none;html=1;verticalAlign=middle;whiteSpace=wrap;rounded=0;fontSize=12;fontFamily=Helvetica;fontColor=#3333FF;" parent="zkfFHV4jXpPFQw0GAbJ--13" vertex="1">
          <mxGeometry y="26" width="180" height="134" as="geometry" />
        </mxCell>
        <mxCell id="zkfFHV4jXpPFQw0GAbJ--17" value="FOOTBALLFIELDS" style="swimlane;fontStyle=2;align=center;verticalAlign=top;childLayout=stackLayout;horizontal=1;startSize=26;horizontalStack=0;resizeParent=1;resizeLast=0;collapsible=1;marginBottom=0;rounded=0;shadow=0;strokeWidth=1;" parent="WIyWlLk6GJQsqaUBKTNV-1" vertex="1">
          <mxGeometry x="350" y="36" width="180" height="112" as="geometry">
            <mxRectangle x="550" y="140" width="160" height="26" as="alternateBounds" />
          </mxGeometry>
        </mxCell>
        <mxCell id="fAS_cCgl-SuV0zaBuzUX-2" value="VALUATIONS" style="swimlane;fontStyle=2;align=center;verticalAlign=top;childLayout=stackLayout;horizontal=1;startSize=26;horizontalStack=0;resizeParent=1;resizeLast=0;collapsible=1;marginBottom=0;rounded=0;shadow=0;strokeWidth=1;" parent="WIyWlLk6GJQsqaUBKTNV-1" vertex="1">
          <mxGeometry x="627" y="36" width="180" height="425" as="geometry">
            <mxRectangle x="340" y="380" width="170" height="26" as="alternateBounds" />
          </mxGeometry>
        </mxCell>
        <mxCell id="1Y8H2mdCFGrl70yU5CJG-15" style="edgeStyle=orthogonalEdgeStyle;rounded=0;orthogonalLoop=1;jettySize=auto;html=1;exitX=0.5;exitY=1;exitDx=0;exitDy=0;strokeColor=#CC6600;" parent="fAS_cCgl-SuV0zaBuzUX-2" source="fAS_cCgl-SuV0zaBuzUX-16" target="fAS_cCgl-SuV0zaBuzUX-16" edge="1">
          <mxGeometry relative="1" as="geometry" />
        </mxCell>
        <mxCell id="fAS_cCgl-SuV0zaBuzUX-16" value="valuationTimeSeries&lt;br&gt;footballfieldId&lt;br&gt;timeDateCreated&lt;br&gt;valuationMultAvEvEbitdaLTM&lt;br&gt;valuationMultAvEvRevLTM&lt;br&gt;valuationMultHighEvEbitdaLTM&lt;br&gt;valuationMultHighEvRevLTM&lt;br&gt;valuationMultMedEvEbitdaLTM&lt;br&gt;valuationMultMedEvRevLTM&lt;br&gt;valuationMultLowEvEbitdaLTM&lt;br&gt;valuationMultLowEvRevLTM&lt;br&gt;valuationEvAvEvEbitdaLTM&lt;br style=&quot;border-color: var(--border-color);&quot;&gt;valuationEvAvEvRevLTM&lt;br style=&quot;border-color: var(--border-color);&quot;&gt;valuationEvHighEvEbitdaLTM&lt;br style=&quot;border-color: var(--border-color);&quot;&gt;valuationEvHighEvRevLTM&lt;br style=&quot;border-color: var(--border-color);&quot;&gt;valuationEvMedEvEbitdaLTM&lt;br style=&quot;border-color: var(--border-color);&quot;&gt;valuationEvMedEvRevLTM&lt;br style=&quot;border-color: var(--border-color);&quot;&gt;valuationEvLowEvEbitdaLTM&lt;br style=&quot;border-color: var(--border-color);&quot;&gt;valuationEvLowEvRevLTM&lt;br&gt;valuationCompsDate&lt;br&gt;valuationName&lt;br&gt;color&lt;br&gt;metric&lt;br&gt;stat&lt;br&gt;spread&lt;br&gt;valuationType" style="text;strokeColor=none;align=left;fillColor=none;html=1;verticalAlign=middle;whiteSpace=wrap;rounded=0;" parent="fAS_cCgl-SuV0zaBuzUX-2" vertex="1">
          <mxGeometry y="26" width="180" height="399" as="geometry" />
        </mxCell>
        <mxCell id="fAS_cCgl-SuV0zaBuzUX-5" value="COMPS" style="swimlane;fontStyle=2;align=center;verticalAlign=top;childLayout=stackLayout;horizontal=1;startSize=26;horizontalStack=0;resizeParent=1;resizeLast=0;collapsible=1;marginBottom=0;rounded=0;shadow=0;strokeWidth=1;" parent="WIyWlLk6GJQsqaUBKTNV-1" vertex="1">
          <mxGeometry x="350" y="190" width="181" height="96" as="geometry">
            <mxRectangle x="340" y="380" width="170" height="26" as="alternateBounds" />
          </mxGeometry>
        </mxCell>
        <mxCell id="fAS_cCgl-SuV0zaBuzUX-19" value="compSymbol&lt;br&gt;evToEbitdaLTM&lt;br&gt;evToRevenueLTM&lt;br&gt;&lt;div style=&quot;&quot;&gt;&lt;span style=&quot;background-color: initial;&quot;&gt;valuationId&lt;/span&gt;&lt;/div&gt;" style="text;strokeColor=none;align=left;fillColor=none;html=1;verticalAlign=middle;whiteSpace=wrap;rounded=0;" parent="fAS_cCgl-SuV0zaBuzUX-5" vertex="1">
          <mxGeometry y="26" width="181" height="70" as="geometry" />
        </mxCell>
        <mxCell id="AIt2yqLNo-Egyz4HGUOV-0" style="edgeStyle=orthogonalEdgeStyle;rounded=0;orthogonalLoop=1;jettySize=auto;html=1;exitX=0.5;exitY=1;exitDx=0;exitDy=0;" parent="fAS_cCgl-SuV0zaBuzUX-5" source="fAS_cCgl-SuV0zaBuzUX-19" target="fAS_cCgl-SuV0zaBuzUX-19" edge="1">
          <mxGeometry relative="1" as="geometry" />
        </mxCell>
        <mxCell id="1Y8H2mdCFGrl70yU5CJG-0" value="footballFieldTimeSeries&lt;br&gt;timeDateCreated&lt;br&gt;footballFieldName&lt;br&gt;footballFieldType&lt;br&gt;&lt;span style=&quot;background-color: initial;&quot;&gt;targetId&lt;/span&gt;" style="text;strokeColor=none;align=left;fillColor=none;html=1;verticalAlign=middle;whiteSpace=wrap;rounded=0;" parent="WIyWlLk6GJQsqaUBKTNV-1" vertex="1">
          <mxGeometry x="350" y="70" width="180" height="72" as="geometry" />
        </mxCell>
        <mxCell id="1Y8H2mdCFGrl70yU5CJG-2" style="edgeStyle=orthogonalEdgeStyle;rounded=0;orthogonalLoop=1;jettySize=auto;html=1;exitX=0.5;exitY=1;exitDx=0;exitDy=0;" parent="WIyWlLk6GJQsqaUBKTNV-1" source="1Y8H2mdCFGrl70yU5CJG-0" target="1Y8H2mdCFGrl70yU5CJG-0" edge="1">
          <mxGeometry relative="1" as="geometry" />
        </mxCell>
      </root>
    </mxGraphModel>
  </diagram>
  <diagram id="LU6JiDI9EXKPR_Y9gghu" name="PÃ¡gina-2">
    <mxGraphModel grid="1" page="1" gridSize="10" guides="1" tooltips="1" connect="1" arrows="1" fold="1" pageScale="1" pageWidth="827" pageHeight="1169" math="0" shadow="0">
      <root>
        <mxCell id="0" />
        <mxCell id="1" parent="0" />
      </root>
    </mxGraphModel>
  </diagram>
</mxfile>
